<?xml version="1.0" ?><!DOCTYPE svg  PUBLIC '-//W3C//DTD SVG 1.1//EN'  'http://www.w3.org/Graphics/SVG/1.1/DTD/svg11.dtd'><svg enable-background="new 0 0 100 100" height="100px" version="1.1" viewBox="0 0 100 100" width="100px" xml:space="preserve" xmlns="http://www.w3.org/2000/svg" xmlns:xlink="http://www.w3.org/1999/xlink"><g id="color_x5F_fill"><path d="M55.878,47.831c1.312,0.681,2.531,1.485,3.789,2.253c-0.094-0.058-2.821,2.233-3.524,2.71   c-0.773,0.524-1.614,0.934-2.424,1.396c-1.648,0.941-3.232,2.042-4.84,3.054c-0.419,0.264-3.566,1.788-3.566,1.788   c0.044-1.312,0.014-2.511-0.032-3.767c-0.048-1.316,0.01-2.633-0.011-3.95c-0.013-0.786-0.006-7.062-0.009-8.283   c0-0.211,0-1.734,0-2.115c0.404,0.257,0.957,0.521,1.351,0.79c0.74,0.504,1.468,1.022,2.204,1.539   c0.768,0.54,1.592,0.974,2.405,1.441C52.855,45.627,54.199,46.959,55.878,47.831z M92.605,91.863l-0.081,1.59   c-13.475,0-27.45,0.283-41.198,0.182c-7.942-0.061-15.631-0.182-23.633-0.182c-3.835,0-17.338,0.002-21.158,0   c0,0,0.637-69.197,0.04-76.871C6.348,13.656,6.395,9.57,6.395,6.596c0,0,14.545-0.062,17.445-0.18   c5.855-0.24,11.793,0.191,17.619,0.18c4.137-0.008,8.21,0.117,12.393,0c2.644-0.074,38.871,0.363,38.871,0.363   c0.074,2.59-0.266,29.564-0.018,35.879c0.273,6.955-0.29,33.307-0.181,39.309C92.587,85.578,92.178,88.232,92.605,91.863z    M75.952,52.178c-0.016-0.455-0.029-0.911-0.042-1.366c-0.073-2.638-0.106-5.279-0.252-7.917c-0.143-2.575-0.982-4.956-1.993-7.309   c-0.347-0.808-1.205-1.467-1.978-1.961c-1.286-0.822-3.011-1.002-4.491-1.111c-1.978-0.146-3.962-0.143-5.944-0.193   c-2.405-0.061-4.812,0.17-7.209,0.021c-2.396-0.149-4.827-0.161-7.227-0.168c-2.76-0.008-5.518,0.073-8.277,0.106   c-1.36,0.016-2.721,0.021-4.082-0.002c-1.141-0.021-3.129,0.101-4.195,0.538c-2.13,0.873-2.71,1.837-3.856,3.892   c-0.589,1.056-0.819,2.229-0.894,3.446c-0.075,1.213-0.623,2.356-0.59,3.562c0.05,1.87-0.176,3.727-0.172,5.594   C24.76,54.334,24.716,59.4,26.875,64l0.5,0.875c0.347,0.465,0.478,1.087,0.878,1.487c0.825,0.823,2.471,0.982,3.56,1.116   c1.358,0.167,2.729,0.169,4.092,0.28c2.246,0.182,4.596-0.058,6.844,0.054c2.258,0.113,4.49,0.164,6.754,0.104   c5.507-0.145,10.999,0.229,16.502-0.17c2.263-0.164,5.098,0.334,6.742-1.558c1.518-1.747,2.11-4.06,2.578-6.271   C75.862,57.385,76.041,54.765,75.952,52.178z" fill="#C12025"/></g><g id="offset_x5F_print_x5F_outline"/></svg>